<?xml version="1.0" encoding="iso-8859-1"?>
<!-- Generator: Adobe Illustrator 19.0.0, SVG Export Plug-In . SVG Version: 6.00 Build 0)  -->
<svg version="1.1" id="Layer_1" xmlns="http://www.w3.org/2000/svg" xmlns:xlink="http://www.w3.org/1999/xlink" x="0px" y="0px"
	 viewBox="0 0 511.998 511.998" style="enable-background:new 0 0 511.998 511.998;" xml:space="preserve">
<path style="fill:#FFAD61;" d="M501.801,107.921c0-23.858-19.341-43.199-43.199-43.199H53.398
	c-23.858,0-43.199,19.341-43.199,43.199v15.957h491.602V107.921z"/>
<path style="fill:#FFE6B8;" d="M10.199,123.877v218.921c0,23.858,19.341,43.199,43.199,43.199h405.203
	c23.858,0,43.199-19.341,43.199-43.199V123.877H10.199z"/>
<circle style="fill:#BCC987;" cx="256" cy="386.039" r="92.854"/>
<g>
	<path style="fill:#4D3D36;" d="M0,342.798c0,29.444,23.955,53.398,53.398,53.398h100.048
		c5.118,52.074,49.156,92.896,102.553,92.896s97.435-40.822,102.553-92.896H458.6c29.444,0,53.398-23.955,53.398-53.398V107.921
		c0-29.444-23.954-53.398-53.398-53.398h-12.895V33.105c0-5.633-4.567-10.199-10.199-10.199c-5.632,0-10.199,4.566-10.199,10.199
		v21.418H86.693V33.105c0-5.633-4.566-10.199-10.199-10.199s-10.199,4.566-10.199,10.199v21.418H53.398
		C23.955,54.523,0,78.478,0,107.921V342.798z M20.398,107.921c0-18.196,14.804-33,33-33h12.897V88.18
		c0,5.633,4.566,10.199,10.199,10.199s10.199-4.566,10.199-10.199V74.921h338.614V88.18c0,5.633,4.567,10.199,10.199,10.199
		c5.632,0,10.199-4.566,10.199-10.199V74.921h12.897c18.196,0,33,14.804,33,33v5.757H20.398V107.921z M266.027,468.064
		c-0.862-4.761-5.019-8.375-10.027-8.375c-5.009,0-9.166,3.614-10.027,8.375c-37.572-4.567-67.431-34.426-71.998-71.998
		c4.761-0.861,8.375-5.018,8.375-10.027c0-5.009-3.614-9.166-8.375-10.027c4.567-37.572,34.426-67.431,71.998-71.998
		c0.861,4.761,5.018,8.375,10.027,8.375s9.166-3.614,10.027-8.375c37.572,4.567,67.431,34.426,71.998,71.998
		c-4.761,0.861-8.375,5.018-8.375,10.027c0,5.009,3.615,9.166,8.375,10.027C333.458,433.638,303.6,463.497,266.027,468.064z
		 M491.602,342.798c0,18.196-14.804,33-33,33H358.546c-5.158-52.034-49.178-92.813-102.546-92.813s-97.388,40.778-102.546,92.813
		H53.398c-18.195,0-33-14.804-33-33V134.077h471.203V342.798z"/>
	<path style="fill:#4D3D36;" d="M56.096,180.993h7.139c5.633,0,10.199-4.566,10.199-10.199s-4.566-10.199-10.199-10.199h-7.139
		c-5.633,0-10.199,4.566-10.199,10.199S50.463,180.993,56.096,180.993z"/>
	<path style="fill:#4D3D36;" d="M112.191,180.993h7.139c5.633,0,10.199-4.566,10.199-10.199s-4.566-10.199-10.199-10.199h-7.139
		c-5.633,0-10.199,4.566-10.199,10.199S106.558,180.993,112.191,180.993z"/>
	<path style="fill:#4D3D36;" d="M168.287,180.993h7.139c5.633,0,10.199-4.566,10.199-10.199s-4.566-10.199-10.199-10.199h-7.139
		c-5.633,0-10.199,4.566-10.199,10.199S162.654,180.993,168.287,180.993z"/>
	<path style="fill:#4D3D36;" d="M224.382,180.993h7.139c5.633,0,10.199-4.566,10.199-10.199s-4.566-10.199-10.199-10.199h-7.139
		c-5.633,0-10.199,4.566-10.199,10.199S218.749,180.993,224.382,180.993z"/>
	<path style="fill:#4D3D36;" d="M280.478,180.993h7.139c5.632,0,10.199-4.566,10.199-10.199s-4.567-10.199-10.199-10.199h-7.139
		c-5.632,0-10.199,4.566-10.199,10.199S274.846,180.993,280.478,180.993z"/>
	<path style="fill:#4D3D36;" d="M336.574,180.993h7.139c5.632,0,10.199-4.566,10.199-10.199s-4.567-10.199-10.199-10.199h-7.139
		c-5.632,0-10.199,4.566-10.199,10.199S330.942,180.993,336.574,180.993z"/>
	<path style="fill:#4D3D36;" d="M392.669,180.993h7.139c5.632,0,10.199-4.566,10.199-10.199s-4.567-10.199-10.199-10.199h-7.139
		c-5.632,0-10.199,4.566-10.199,10.199S387.037,180.993,392.669,180.993z"/>
	<path style="fill:#4D3D36;" d="M448.765,180.993h7.139c5.632,0,10.199-4.566,10.199-10.199s-4.567-10.199-10.199-10.199h-7.139
		c-5.632,0-10.199,4.566-10.199,10.199S443.133,180.993,448.765,180.993z"/>
	<path style="fill:#4D3D36;" d="M56.096,235.388h7.139c5.633,0,10.199-4.566,10.199-10.199s-4.566-10.199-10.199-10.199h-7.139
		c-5.633,0-10.199,4.566-10.199,10.199S50.463,235.388,56.096,235.388z"/>
	<path style="fill:#4D3D36;" d="M112.191,235.388h7.139c5.633,0,10.199-4.566,10.199-10.199s-4.566-10.199-10.199-10.199h-7.139
		c-5.633,0-10.199,4.566-10.199,10.199S106.558,235.388,112.191,235.388z"/>
	<path style="fill:#4D3D36;" d="M168.287,235.388h7.139c5.633,0,10.199-4.566,10.199-10.199s-4.566-10.199-10.199-10.199h-7.139
		c-5.633,0-10.199,4.566-10.199,10.199S162.654,235.388,168.287,235.388z"/>
	<path style="fill:#4D3D36;" d="M224.382,235.388h7.139c5.633,0,10.199-4.566,10.199-10.199s-4.566-10.199-10.199-10.199h-7.139
		c-5.633,0-10.199,4.566-10.199,10.199S218.749,235.388,224.382,235.388z"/>
	<path style="fill:#4D3D36;" d="M280.478,235.388h7.139c5.632,0,10.199-4.566,10.199-10.199s-4.567-10.199-10.199-10.199h-7.139
		c-5.632,0-10.199,4.566-10.199,10.199S274.846,235.388,280.478,235.388z"/>
	<path style="fill:#4D3D36;" d="M336.574,235.388h7.139c5.632,0,10.199-4.566,10.199-10.199s-4.567-10.199-10.199-10.199h-7.139
		c-5.632,0-10.199,4.566-10.199,10.199S330.942,235.388,336.574,235.388z"/>
	<path style="fill:#4D3D36;" d="M392.669,235.388h7.139c5.632,0,10.199-4.566,10.199-10.199s-4.567-10.199-10.199-10.199h-7.139
		c-5.632,0-10.199,4.566-10.199,10.199S387.037,235.388,392.669,235.388z"/>
	<path style="fill:#4D3D36;" d="M448.765,235.388h7.139c5.632,0,10.199-4.566,10.199-10.199s-4.567-10.199-10.199-10.199h-7.139
		c-5.632,0-10.199,4.566-10.199,10.199S443.133,235.388,448.765,235.388z"/>
	<path style="fill:#4D3D36;" d="M56.096,289.785h7.139c5.633,0,10.199-4.566,10.199-10.199s-4.566-10.199-10.199-10.199h-7.139
		c-5.633,0-10.199,4.566-10.199,10.199S50.463,289.785,56.096,289.785z"/>
	<path style="fill:#4D3D36;" d="M112.191,289.785h7.139c5.633,0,10.199-4.566,10.199-10.199s-4.566-10.199-10.199-10.199h-7.139
		c-5.633,0-10.199,4.566-10.199,10.199S106.558,289.785,112.191,289.785z"/>
	<path style="fill:#4D3D36;" d="M168.287,289.785h7.139c5.633,0,10.199-4.566,10.199-10.199s-4.566-10.199-10.199-10.199h-7.139
		c-5.633,0-10.199,4.566-10.199,10.199S162.654,289.785,168.287,289.785z"/>
	<path style="fill:#4D3D36;" d="M336.574,289.785h7.139c5.632,0,10.199-4.566,10.199-10.199s-4.567-10.199-10.199-10.199h-7.139
		c-5.632,0-10.199,4.566-10.199,10.199S330.942,289.785,336.574,289.785z"/>
	<path style="fill:#4D3D36;" d="M392.669,289.785h7.139c5.632,0,10.199-4.566,10.199-10.199s-4.567-10.199-10.199-10.199h-7.139
		c-5.632,0-10.199,4.566-10.199,10.199S387.037,289.785,392.669,289.785z"/>
	<path style="fill:#4D3D36;" d="M448.765,289.785h7.139c5.632,0,10.199-4.566,10.199-10.199s-4.567-10.199-10.199-10.199h-7.139
		c-5.632,0-10.199,4.566-10.199,10.199S443.133,289.785,448.765,289.785z"/>
	<path style="fill:#4D3D36;" d="M56.096,344.18h7.139c5.633,0,10.199-4.566,10.199-10.199c0-5.633-4.566-10.199-10.199-10.199
		h-7.139c-5.633,0-10.199,4.566-10.199,10.199C45.896,339.614,50.463,344.18,56.096,344.18z"/>
	<path style="fill:#4D3D36;" d="M112.191,344.18h7.139c5.633,0,10.199-4.566,10.199-10.199c0-5.633-4.566-10.199-10.199-10.199
		h-7.139c-5.633,0-10.199,4.566-10.199,10.199C101.992,339.614,106.558,344.18,112.191,344.18z"/>
	<path style="fill:#4D3D36;" d="M392.669,344.18h7.139c5.632,0,10.199-4.566,10.199-10.199c0-5.633-4.567-10.199-10.199-10.199
		h-7.139c-5.632,0-10.199,4.566-10.199,10.199C382.47,339.614,387.037,344.18,392.669,344.18z"/>
	<path style="fill:#4D3D36;" d="M448.765,344.18h7.139c5.632,0,10.199-4.566,10.199-10.199c0-5.633-4.567-10.199-10.199-10.199
		h-7.139c-5.632,0-10.199,4.566-10.199,10.199C438.566,339.614,443.133,344.18,448.765,344.18z"/>
	<path style="fill:#4D3D36;" d="M256,341.672c5.632,0,10.199-4.566,10.199-10.199v-2.091c0-5.633-4.567-10.199-10.199-10.199
		c-5.633,0-10.199,4.566-10.199,10.199v2.091C245.801,337.106,250.367,341.672,256,341.672z"/>
	<path style="fill:#4D3D36;" d="M266.199,381.421v-18.33c0-5.633-4.567-10.199-10.199-10.199c-5.633,0-10.199,4.566-10.199,10.199
		v22.504c0,2.783,1.118,5.304,2.926,7.145l0.001,0.006l26.058,26.503c1.997,2.031,4.635,3.049,7.274,3.049
		c2.58,0,5.164-0.974,7.15-2.926c4.016-3.949,4.072-10.407,0.122-14.424L266.199,381.421z"/>
</g>
<g>
</g>
<g>
</g>
<g>
</g>
<g>
</g>
<g>
</g>
<g>
</g>
<g>
</g>
<g>
</g>
<g>
</g>
<g>
</g>
<g>
</g>
<g>
</g>
<g>
</g>
<g>
</g>
<g>
</g>
</svg>
