<?xml version="1.0" encoding="iso-8859-1"?>
<!-- Generator: Adobe Illustrator 19.0.0, SVG Export Plug-In . SVG Version: 6.00 Build 0)  -->
<svg version="1.1" id="Layer_1" xmlns="http://www.w3.org/2000/svg" xmlns:xlink="http://www.w3.org/1999/xlink" x="0px" y="0px"
	 viewBox="0 0 390.206 390.206" style="enable-background:new 0 0 390.206 390.206;" xml:space="preserve">
<path style="fill:#56ACE0;" d="M265.051,368.549c-44.994,0-81.842-36.849-81.842-81.842c0-30.901,17.325-59.087,44.994-73.18
	c3.814-1.616,5.947-5.43,5.947-9.762V52.04c0-16.808,13.576-30.319,30.384-30.319c16.808,0,30.384,13.576,30.384,30.319v152.307
	c0,4.331,2.133,7.564,5.947,9.762c27.669,14.093,44.994,41.762,44.994,73.18C346.828,331.701,309.98,368.549,265.051,368.549z"/>
<path style="fill:#FFFFFF;" d="M264.986,248.76c-21.139,0-38.465,17.325-38.465,38.465s17.325,38.465,38.465,38.465
	s38.465-17.325,38.465-38.465C303.515,266.085,286.125,248.76,264.986,248.76z"/>
<path style="fill:#FFC10D;" d="M95.354,62.319c-18.424,0-33.616,15.192-33.616,33.616s15.192,33.616,33.616,33.616
	s33.616-15.192,33.616-33.616C128.97,76.929,113.778,62.319,95.354,62.319z"/>
<g>
	<path style="fill:#194F82;" d="M275.846,228.137V61.22c0-5.947-4.848-10.861-10.861-10.861s-10.861,4.848-10.861,10.861v166.917
		c-27.669,4.848-49.325,29.802-49.325,59.087c0,33.034,27.087,60.186,60.186,60.186s60.186-27.087,60.186-60.186
		C325.172,257.422,304.032,233.051,275.846,228.137z M264.986,325.172c-21.139,0-38.465-17.325-38.465-38.465
		s17.325-38.465,38.465-38.465s38.465,17.325,38.465,38.465S286.125,325.172,264.986,325.172z"/>
	<path style="fill:#194F82;" d="M317.608,197.818V52.04c0-28.703-23.273-52.04-52.04-52.04c-28.768,0-52.04,23.273-52.04,52.04
		v145.778c-32,18.424-50.941,52.04-50.941,88.889c0,56.889,46.093,103.499,103.499,103.499c56.889,0,103.499-46.093,103.499-103.499
		C368.549,249.859,349.026,216.242,317.608,197.818z M264.986,368.549c-44.994,0-81.842-36.849-81.842-81.842
		c0-30.901,17.325-59.087,44.994-73.18c3.814-1.616,5.947-5.43,5.947-9.762V52.04c0-16.808,13.576-30.319,30.319-30.319
		c16.808,0,30.319,13.576,30.319,30.319v152.307c0,4.331,2.198,7.564,5.947,9.762c27.669,14.093,44.994,41.762,44.994,73.18
		C346.828,331.701,309.98,368.549,264.986,368.549z"/>
	<path style="fill:#194F82;" d="M341.463,61.22h37.883c5.947,0,10.861-4.848,10.861-10.861s-4.849-10.861-10.861-10.861h-37.948
		c-5.947,0-10.861,4.848-10.861,10.861S335.451,61.22,341.463,61.22z"/>
	<path style="fill:#194F82;" d="M341.463,106.214h16.291c5.947,0,10.861-4.848,10.861-10.861s-4.848-10.861-10.861-10.861h-16.291
		c-5.948,0-10.861,4.848-10.861,10.861S335.451,106.214,341.463,106.214z"/>
	<path style="fill:#194F82;" d="M379.345,128.97h-37.948c-5.947,0-10.861,4.848-10.861,10.861s4.848,10.861,10.861,10.861h37.948
		c5.947,0,10.861-4.848,10.861-10.861S385.358,128.97,379.345,128.97z"/>
	<path style="fill:#194F82;" d="M357.689,173.964h-16.291c-5.947,0-10.861,4.848-10.861,10.861c0,5.947,4.848,10.861,10.861,10.861
		h16.291c5.947,0,10.861-4.848,10.861-10.861C368.549,178.812,363.636,173.964,357.689,173.964z"/>
	<path style="fill:#194F82;" d="M95.354,40.663c-30.319,0-54.756,24.372-54.756,54.756s24.954,55.273,55.273,55.273
		s55.273-24.954,55.273-55.273C150.691,65.034,125.737,40.663,95.354,40.663z M95.354,128.97c-18.424,0-33.616-15.192-33.616-33.616
		s15.192-33.616,33.616-33.616s33.616,15.192,33.616,33.616S113.778,128.97,95.354,128.97z"/>
	<path style="fill:#194F82;" d="M95.354,30.901c5.947,0,10.861-4.848,10.861-10.861v-9.18C106.214,4.913,101.366,0,95.354,0
		S84.558,4.848,84.558,10.861v9.244C84.558,25.988,89.406,30.901,95.354,30.901z"/>
	<path style="fill:#194F82;" d="M95.354,159.871c-5.947,0-10.861,4.848-10.861,10.861v9.244c0,5.947,4.848,10.861,10.861,10.861
		s10.861-4.848,10.861-10.861v-9.244C106.214,164.784,101.366,159.871,95.354,159.871z"/>
	<path style="fill:#194F82;" d="M159.871,95.354c0,5.947,4.848,10.861,10.861,10.861h9.244c5.947,0,10.861-4.848,10.861-10.861
		s-4.848-10.861-10.861-10.861h-9.244C164.784,84.558,159.871,89.406,159.871,95.354z"/>
	<path style="fill:#194F82;" d="M30.901,95.354c0-5.947-4.848-10.861-10.861-10.861h-9.18C4.913,84.493,0,89.341,0,95.354
		s4.848,10.861,10.861,10.861h9.244C25.988,106.214,30.901,101.366,30.901,95.354z"/>
	<path style="fill:#194F82;" d="M156.638,49.842l6.529-6.529c4.331-4.331,4.331-10.861,0-15.192c-4.331-4.331-10.861-4.331-15.192,0
		l-6.529,6.529c-4.331,4.331-4.331,10.861,0,15.192C145.261,54.174,152.307,54.174,156.638,49.842z"/>
	<path style="fill:#194F82;" d="M34.651,140.929l-6.529,6.529c-4.331,4.331-4.331,10.861,0,15.192
		c4.331,4.331,10.861,4.331,15.192,0l6.529-6.529c4.331-4.331,4.331-10.861,0-15.192C45.511,136.598,39.046,137.115,34.651,140.929z
		"/>
	<path style="fill:#194F82;" d="M163.103,147.976l-6.465-6.529c-4.331-4.331-10.861-4.331-15.192,0
		c-4.331,4.331-4.331,10.861,0,15.192l6.529,6.529c4.331,4.331,10.861,4.331,15.192,0
		C167.434,158.772,167.434,151.725,163.103,147.976z"/>
	<path style="fill:#194F82;" d="M34.651,49.842c4.331,4.331,10.861,4.331,15.192,0s4.331-10.861,0-15.192l-6.529-6.529
		c-4.331-4.331-10.861-4.331-15.192,0s-4.331,10.861,0,15.192L34.651,49.842z"/>
</g>
<g>
</g>
<g>
</g>
<g>
</g>
<g>
</g>
<g>
</g>
<g>
</g>
<g>
</g>
<g>
</g>
<g>
</g>
<g>
</g>
<g>
</g>
<g>
</g>
<g>
</g>
<g>
</g>
<g>
</g>
</svg>
